<svg xmlns="http://www.w3.org/2000/svg" xmlns:xlink="http://www.w3.org/1999/xlink" width="500" zoomAndPan="magnify" viewBox="0 0 375 374.999991" height="500" preserveAspectRatio="xMidYMid meet" version="1.0"><defs><clipPath id="7367731004"><path d="M 3.171875 59 L 211 59 L 211 368.441406 L 3.171875 368.441406 Z M 3.171875 59 " clip-rule="nonzero"/></clipPath><clipPath id="6ffc2ce548"><path d="M 111 6.191406 L 372.171875 6.191406 L 372.171875 267 L 111 267 Z M 111 6.191406 " clip-rule="nonzero"/></clipPath></defs><g clip-path="url(#7367731004)"><path fill="#e74287" d="M 126.066406 264.929688 C 134.511719 263.363281 142.601562 260.78125 150.199219 257.296875 C 154.082031 255.515625 157.828125 253.507812 161.425781 251.296875 C 171.21875 245.261719 179.941406 237.660156 187.230469 228.828125 C 189.683594 225.875 191.957031 222.765625 194.058594 219.546875 C 204.722656 203.304688 210.929688 183.894531 210.972656 163.0625 C 211.019531 142.105469 204.828125 122.570312 194.125 106.222656 C 183.921875 110.144531 175.023438 116.757812 168.308594 125.175781 C 175.125 136.164062 179.046875 149.128906 179.015625 162.996094 C 178.984375 176.765625 175.058594 189.648438 168.277344 200.578125 C 166.257812 203.863281 163.984375 206.957031 161.46875 209.859375 C 154.433594 217.957031 145.632812 224.492188 135.667969 228.8125 C 132.070312 230.371094 128.3125 231.65625 124.429688 232.625 C 118.832031 234.003906 112.980469 234.738281 106.957031 234.726562 C 67.3125 234.640625 35.121094 202.339844 35.207031 162.6875 C 35.289062 123.058594 67.617188 90.871094 107.265625 90.957031 C 113.191406 90.96875 118.957031 91.699219 124.484375 93.085938 C 131.761719 83.597656 140.484375 75.261719 150.308594 68.429688 C 137.21875 62.410156 122.65625 59.039062 107.332031 59.007812 C 50.0625 58.886719 3.367188 105.367188 3.246094 162.621094 C 3.140625 213.324219 39.59375 255.71875 87.71875 264.84375 L 87.679688 283.410156 L 40.542969 283.308594 L 40.460938 321.648438 L 87.597656 321.746094 L 87.496094 368.875 L 125.847656 368.953125 L 125.945312 321.828125 L 173.085938 321.929688 L 173.167969 283.589844 L 126.03125 283.492188 L 126.066406 264.929688 " fill-opacity="1" fill-rule="nonzero"/></g><g clip-path="url(#6ffc2ce548)"><path fill="#5796d5" d="M 271.503906 6.289062 L 271.503906 44.628906 L 306.707031 44.628906 L 274.332031 76.976562 C 257.652344 65.542969 237.46875 58.832031 215.753906 58.832031 C 200.300781 58.832031 185.636719 62.214844 172.453125 68.304688 C 168.582031 70.078125 164.832031 72.089844 161.234375 74.308594 C 151.453125 80.367188 142.765625 87.984375 135.492188 96.832031 C 133.046875 99.804688 130.78125 102.90625 128.671875 106.132812 C 118.058594 122.410156 111.890625 141.835938 111.890625 162.667969 C 111.890625 183.625 118.125 203.144531 128.859375 219.472656 C 139.054688 215.527344 147.921875 208.914062 154.621094 200.480469 C 147.796875 189.488281 143.847656 176.515625 143.847656 162.667969 C 143.847656 148.894531 147.746094 136.023438 154.507812 125.058594 C 156.519531 121.789062 158.789062 118.6875 161.296875 115.78125 C 168.296875 107.652344 177.101562 101.117188 187.054688 96.757812 C 190.652344 95.1875 194.40625 93.894531 198.289062 92.9375 C 203.882812 91.53125 209.730469 90.78125 215.753906 90.78125 C 232.660156 90.78125 248.191406 96.644531 260.480469 106.433594 L 271.984375 117.9375 C 281.78125 130.222656 287.660156 145.765625 287.660156 162.667969 C 287.660156 202.296875 255.398438 234.550781 215.753906 234.550781 C 209.84375 234.550781 204.089844 233.832031 198.574219 232.476562 C 191.339844 241.964844 182.664062 250.320312 172.804688 257.203125 C 185.90625 263.179688 200.445312 266.5 215.753906 266.5 C 273.023438 266.5 319.617188 219.917969 319.617188 162.667969 C 319.617188 140.941406 312.90625 120.78125 301.464844 104.085938 L 333.820312 71.738281 L 333.820312 106.929688 L 372.171875 106.929688 L 372.171875 6.289062 L 271.503906 6.289062 " fill-opacity="1" fill-rule="nonzero"/></g></svg>